%TF.GenerationSoftware,KiCad,Pcbnew,(6.0.9)*%
%TF.CreationDate,2023-01-10T19:03:16+01:00*%
%TF.ProjectId,P1_shield_board,50315f73-6869-4656-9c64-5f626f617264,V1.0*%
%TF.SameCoordinates,Original*%
%TF.FileFunction,Profile,NP*%
%FSLAX46Y46*%
G04 Gerber Fmt 4.6, Leading zero omitted, Abs format (unit mm)*
G04 Created by KiCad (PCBNEW (6.0.9)) date 2023-01-10 19:03:16*
%MOMM*%
%LPD*%
G01*
G04 APERTURE LIST*
%TA.AperFunction,Profile*%
%ADD10C,0.100000*%
%TD*%
G04 APERTURE END LIST*
D10*
X134433200Y-97598800D02*
X134433200Y-66802000D01*
X87909400Y-53975000D02*
X74041000Y-53975000D01*
X134433200Y-66802000D02*
X127762000Y-66802000D01*
X73253600Y-54686200D02*
X73253600Y-43400000D01*
X87909400Y-71704200D02*
X87909400Y-53975000D01*
X87122000Y-54686200D02*
X73253600Y-54686200D01*
X74041000Y-53975000D02*
X73990200Y-53975000D01*
X73253600Y-43400000D02*
X73990200Y-43400000D01*
X134433200Y-47294800D02*
X134433200Y-22598800D01*
X134433200Y-47294800D02*
X127762000Y-47294800D01*
X63652400Y-70942200D02*
X87147400Y-70942200D01*
X63652400Y-70942200D02*
X63652400Y-71704200D01*
X59433200Y-22598800D02*
X134433200Y-22598800D01*
X87147400Y-70942200D02*
X87122000Y-54686200D01*
X59433200Y-97598800D02*
X59433200Y-22598800D01*
X87528400Y-71704200D02*
X87909400Y-71704200D01*
X134433200Y-97598800D02*
X59433200Y-97598800D01*
X127762000Y-66802000D02*
X127762000Y-47294800D01*
X63652400Y-71704200D02*
X87528400Y-71704200D01*
X73990200Y-43400000D02*
X73990200Y-53975000D01*
M02*
