M48
; DRILL file {KiCad (6.0.9)} date Tue Jan 10 10:00:21 2023
; FORMAT={-:-/ absolute / inch / decimal}
; #@! TF.CreationDate,2023-01-10T10:00:21+01:00
; #@! TF.GenerationSoftware,Kicad,Pcbnew,(6.0.9)
; #@! TF.FileFunction,Plated,1,4,PTH
FMAT,2
INCH
; #@! TA.AperFunction,Plated,PTH,ViaDrill
T1C0.0118
; #@! TA.AperFunction,Plated,PTH,ComponentDrill
T2C0.0118
; #@! TA.AperFunction,Plated,PTH,ViaDrill
T3C0.0157
; #@! TA.AperFunction,Plated,PTH,ComponentDrill
T4C0.0236
; #@! TA.AperFunction,Plated,PTH,ComponentDrill
T5C0.0260
; #@! TA.AperFunction,Plated,PTH,ComponentDrill
T6C0.0299
; #@! TA.AperFunction,Plated,PTH,ComponentDrill
T7C0.0315
; #@! TA.AperFunction,Plated,PTH,ComponentDrill
T8C0.0382
; #@! TA.AperFunction,Plated,PTH,ComponentDrill
T9C0.0394
; #@! TA.AperFunction,Plated,PTH,ComponentDrill
T10C0.0433
; #@! TA.AperFunction,Plated,PTH,ComponentDrill
T11C0.0650
; #@! TA.AperFunction,Plated,PTH,ComponentDrill
T12C0.0866
%
G90
G05
T1
X2.494Y-1.45
X2.556Y-1.222
X2.6828Y-2.163
X2.684Y-2.106
X2.846Y-1.274
X2.85Y-1.038
X2.85Y-1.064
X2.892Y-0.982
X2.936Y-0.982
X2.953Y-1.703
X2.968Y-1.038
X2.968Y-1.066
X2.9757Y-1.7224
X2.9757Y-1.8693
X2.9941Y-1.8976
X3.0236Y-1.7441
X3.067Y-1.901
X3.0745Y-1.7224
X3.0745Y-1.8693
X3.1024Y-1.7224
X3.2565Y-1.9975
X3.276Y-1.37
X3.316Y-1.126
X3.328Y-2.062
X3.368Y-2.057
X3.384Y-1.625
X3.388Y-1.587
X3.398Y-3.639
X3.404Y-1.948
X3.41Y-1.614
X3.438Y-1.603
X3.475Y-1.731
X3.475Y-1.784
X3.504Y-1.63
X3.513Y-1.374
X3.516Y-2.066
X3.528Y-1.655
X3.567Y-1.64
X3.579Y-1.767
X3.5795Y-1.8285
X3.592Y-1.98
X3.597Y-1.798
X3.6192Y-1.7448
X3.622Y-1.779
X3.654Y-2.64
X3.691Y-1.739
X3.7Y-1.374
X3.713Y-1.587
X3.723Y-1.852
X3.7588Y-1.8068
X3.768Y-1.766
X3.793Y-1.562
X3.802Y-2.66
X3.852Y-0.962
X3.87Y-1.55
X3.892Y-0.962
X3.902Y-2.573
X3.928Y-0.962
X3.934Y-1.5639
X3.96Y-0.962
X3.962Y-1.881
X4.007Y-1.5899
X4.038Y-1.5209
X4.103Y-3.152
X4.111Y-1.962
X4.135Y-2.128
X4.15Y-1.906
X4.151Y-2.083
X4.167Y-2.337
X4.174Y-1.953
X4.174Y-2.108
X4.184Y-1.854
X4.189Y-2.547
X4.206Y-2.119
X4.222Y-2.241
X4.226Y-1.854
X4.259Y-2.631
X4.2874Y-2.5806
X4.301Y-2.91
X4.339Y-1.852
X4.389Y-1.853
X4.404Y-1.781
X4.44Y-1.855
X4.478Y-2.162
X4.478Y-2.375
X4.492Y-2.84
X4.508Y-2.122
X4.538Y-2.035
X4.5585Y-2.7845
X4.568Y-3.424
X4.589Y-2.477
X4.6454Y-3.6054
X4.6654Y-2.9567
X4.6654Y-2.9961
X4.6654Y-3.0276
X4.6929Y-2.9449
X4.739Y-1.844
X4.773Y-2.008
X4.789Y-2.646
X4.839Y-2.674
X4.853Y-2.004
X4.853Y-3.342
X4.857Y-2.407
X4.889Y-1.852
X4.9921Y-2.937
X4.9921Y-2.9764
X5.0984Y-2.9449
X5.0984Y-2.9764
X5.0984Y-3.0157
X5.0984Y-3.0472
T2
X4.6577Y-2.171
X4.6578Y-2.243
X4.7299Y-2.171
X4.73Y-2.243
T3
X2.421Y-3.19
X2.421Y-3.229
X2.432Y-2.166
X2.436Y-2.542
X2.49Y-1.904
X2.492Y-2.434
X2.507Y-3.09
X2.52Y-2.29
X2.553Y-3.102
X2.5591Y-2.166
X2.56Y-2.32
X2.567Y-3.34
X2.602Y-2.046
X2.606Y-1.95
X2.675Y-3.278
X2.704Y-2.1974
X2.712Y-2.924
X2.712Y-2.962
X2.722Y-2.607
X2.74Y-3.233
X2.746Y-1.904
X2.7461Y-1.7933
X2.7461Y-1.8504
X2.8126Y-2.2271
X2.86Y-2.09
X3.044Y-2.282
X3.047Y-2.569
X3.08Y-2.19
X3.103Y-1.902
X3.143Y-1.902
X3.145Y-2.607
X3.193Y-2.087
X3.208Y-1.832
X3.2441Y-1.5906
X3.398Y-1.407
X3.529Y-2.266
X3.529Y-2.312
X3.532Y-2.571
X3.532Y-2.62
X3.573Y-2.266
X3.573Y-2.312
X3.638Y-2.142
X3.703Y-3.327
X3.734Y-2.714
X3.745Y-2.777
X3.774Y-2.572
X3.774Y-2.62
X3.81Y-2.398
X3.811Y-2.47
X3.823Y-2.302
X3.833Y-1.702
X3.833Y-1.897
X3.873Y-2.302
X3.8974Y-1.711
X3.898Y-3.701
X3.914Y-2.877
X3.938Y-1.617
X3.944Y-1.243
X3.946Y-3.701
X3.9626Y-3.4941
X3.984Y-2.877
X3.985Y-3.701
X3.988Y-2.556
X3.996Y-2.405
X4.001Y-2.329
X4.008Y-1.082
X4.0262Y-3.4738
X4.053Y-2.877
X4.078Y-3.327
X4.091Y-2.143
X4.105Y-2.323
X4.152Y-1.722
X4.199Y-2.471
X4.218Y-3.382
X4.233Y-1.562
X4.255Y-2.97
X4.263Y-3.382
X4.28Y-1.195
X4.283Y-1.322
X4.283Y-1.392
X4.283Y-1.452
X4.3Y-2.998
X4.338Y-2.826
X4.373Y-1.722
X4.387Y-2.154
X4.387Y-2.214
X4.389Y-2.473
X4.398Y-3.672
X4.411Y-1.586
X4.423Y-2.792
X4.423Y-3.252
X4.436Y-3.129
X4.447Y-1.512
X4.488Y-1.767
X4.4882Y-2.9528
X4.4882Y-3.0039
X4.493Y-1.172
X4.528Y-1.772
X4.5551Y-3.0039
X4.5583Y-2.9527
X4.568Y-1.052
X4.573Y-1.772
X4.578Y-3.135
X4.5807Y-2.7008
X4.589Y-1.824
X4.639Y-1.825
X4.643Y-2.852
X4.674Y-1.709
X4.6764Y-2.9016
X4.689Y-1.825
X4.703Y-2.847
X4.743Y-3.657
X4.808Y-3.397
X4.868Y-3.072
X4.908Y-2.807
X4.919Y-3.11
X4.938Y-1.757
X4.938Y-1.797
X4.948Y-2.852
X4.978Y-3.152
X4.988Y-2.692
X4.988Y-2.732
X4.988Y-2.802
X5.028Y-2.692
X5.028Y-2.732
T5
X5.0871Y-2.8622
X5.0871Y-3.0898
T6
X3.865Y-1.3119
X3.915Y-1.4119
X3.965Y-1.3119
X4.015Y-1.4119
X4.065Y-1.3119
X4.115Y-1.4119
X4.448Y-1.3109
X4.498Y-1.4109
X4.548Y-1.3109
X4.598Y-1.4109
X4.648Y-1.3109
X4.698Y-1.4109
T7
X3.609Y-3.5189
X3.609Y-3.6567
T8
X2.693Y-1.412
X2.743Y-1.512
X2.893Y-1.412
X2.943Y-1.512
X2.993Y-1.412
X3.043Y-1.512
X3.093Y-1.412
X3.143Y-1.512
T9
X3.438Y-0.9768
X3.438Y-1.0768
X3.438Y-1.202
X3.438Y-1.302
X3.559Y-0.9772
X3.559Y-1.0772
X3.559Y-1.2024
X3.559Y-1.3024
X3.581Y-2.9256
X3.581Y-3.0256
X3.581Y-3.1256
X3.7264Y-2.202
X3.727Y-2.9256
X3.727Y-3.0256
X3.727Y-3.1256
X3.8264Y-2.202
X3.9264Y-2.202
X4.0264Y-2.202
X4.1942Y-3.153
X4.1942Y-3.277
X4.2942Y-3.153
X4.2942Y-3.277
X4.314Y-1.5452
X4.314Y-1.6452
X4.944Y-1.087
X4.944Y-1.187
X4.944Y-1.287
X4.944Y-1.387
X4.944Y-1.487
X4.944Y-1.587
X5.089Y-1.086
X5.089Y-1.186
X5.089Y-1.286
X5.089Y-1.386
X5.089Y-1.486
X5.089Y-1.586
X5.089Y-1.686
X5.089Y-1.786
T10
X2.6511Y-0.9821
X2.6511Y-1.062
X3.1849Y-0.9821
X3.1849Y-1.062
X5.07Y-3.298
X5.07Y-3.398
X5.07Y-3.498
T11
X2.6131Y-1.2821
X3.2229Y-1.2821
T12
X2.424Y-0.974
X2.426Y-3.756
X5.208Y-0.974
X5.208Y-3.758
T4
G00X5.0457Y-2.8059
M15
G01X5.0891Y-2.8059
M16
G05
G00X5.0457Y-3.1461
M15
G01X5.0891Y-3.1461
M16
G05
G00X5.2162Y-2.8059
M15
G01X5.2477Y-2.8059
M16
G05
G00X5.2162Y-3.1461
M15
G01X5.2477Y-3.1461
M16
G05
T0
M30
