%TF.GenerationSoftware,KiCad,Pcbnew,(6.0.9)*%
%TF.CreationDate,2023-01-10T19:03:16+01:00*%
%TF.ProjectId,P1_shield_board,50315f73-6869-4656-9c64-5f626f617264,V1.0*%
%TF.SameCoordinates,Original*%
%TF.FileFunction,Paste,Top*%
%TF.FilePolarity,Positive*%
%FSLAX46Y46*%
G04 Gerber Fmt 4.6, Leading zero omitted, Abs format (unit mm)*
G04 Created by KiCad (PCBNEW (6.0.9)) date 2023-01-10 19:03:16*
%MOMM*%
%LPD*%
G01*
G04 APERTURE LIST*
G04 Aperture macros list*
%AMRoundRect*
0 Rectangle with rounded corners*
0 $1 Rounding radius*
0 $2 $3 $4 $5 $6 $7 $8 $9 X,Y pos of 4 corners*
0 Add a 4 corners polygon primitive as box body*
4,1,4,$2,$3,$4,$5,$6,$7,$8,$9,$2,$3,0*
0 Add four circle primitives for the rounded corners*
1,1,$1+$1,$2,$3*
1,1,$1+$1,$4,$5*
1,1,$1+$1,$6,$7*
1,1,$1+$1,$8,$9*
0 Add four rect primitives between the rounded corners*
20,1,$1+$1,$2,$3,$4,$5,0*
20,1,$1+$1,$4,$5,$6,$7,0*
20,1,$1+$1,$6,$7,$8,$9,0*
20,1,$1+$1,$8,$9,$2,$3,0*%
G04 Aperture macros list end*
%ADD10C,0.010000*%
%ADD11RoundRect,0.104000X0.257000X-0.200000X0.257000X0.200000X-0.257000X0.200000X-0.257000X-0.200000X0*%
%ADD12RoundRect,0.104000X0.200000X0.257000X-0.200000X0.257000X-0.200000X-0.257000X0.200000X-0.257000X0*%
%ADD13R,0.912000X0.684000*%
%ADD14RoundRect,0.130000X-0.421000X0.250000X-0.421000X-0.250000X0.421000X-0.250000X0.421000X0.250000X0*%
%ADD15RoundRect,0.117000X0.225000X0.244000X-0.225000X0.244000X-0.225000X-0.244000X0.225000X-0.244000X0*%
%ADD16RoundRect,0.104000X-0.200000X-0.257000X0.200000X-0.257000X0.200000X0.257000X-0.200000X0.257000X0*%
%ADD17RoundRect,0.117000X0.244000X-0.225000X0.244000X0.225000X-0.244000X0.225000X-0.244000X-0.225000X0*%
%ADD18RoundRect,0.000000X0.228000X-0.560500X0.228000X0.560500X-0.228000X0.560500X-0.228000X-0.560500X0*%
%ADD19RoundRect,0.117000X-0.244000X0.225000X-0.244000X-0.225000X0.244000X-0.225000X0.244000X0.225000X0*%
%ADD20RoundRect,0.112000X-0.325000X-0.572000X0.325000X-0.572000X0.325000X0.572000X-0.325000X0.572000X0*%
%ADD21R,0.762508X0.424688*%
%ADD22R,1.368000X2.660000*%
%ADD23R,1.064000X1.596000*%
%ADD24RoundRect,0.117000X-0.225000X-0.244000X0.225000X-0.244000X0.225000X0.244000X-0.225000X0.244000X0*%
%ADD25R,0.532000X0.760000*%
%ADD26RoundRect,0.104000X-0.257000X0.200000X-0.257000X-0.200000X0.257000X-0.200000X0.257000X0.200000X0*%
%ADD27R,1.900000X1.368000*%
%ADD28R,0.433053X1.181145*%
%ADD29RoundRect,0.098407X0.118119X-0.492165X0.118119X0.492165X-0.118119X0.492165X-0.118119X-0.492165X0*%
%ADD30R,0.386080X0.386080*%
%ADD31RoundRect,0.103000X-0.362500X-1.170000X0.362500X-1.170000X0.362500X1.170000X-0.362500X1.170000X0*%
%ADD32C,2.280000*%
%ADD33R,0.868680X0.443992*%
%ADD34R,0.868680X0.231648*%
%ADD35R,0.684000X1.520000*%
%ADD36R,1.520000X0.684000*%
%ADD37R,1.010800X1.010800*%
%ADD38RoundRect,0.112000X-0.572000X0.325000X-0.572000X-0.325000X0.572000X-0.325000X0.572000X0.325000X0*%
%ADD39R,4.636000X2.052000*%
%ADD40RoundRect,0.113750X-0.218750X-0.247250X0.218750X-0.247250X0.218750X0.247250X-0.218750X0.247250X0*%
%ADD41RoundRect,0.130000X0.421000X-0.250000X0.421000X0.250000X-0.421000X0.250000X-0.421000X-0.250000X0*%
%ADD42RoundRect,0.113750X0.218750X0.247250X-0.218750X0.247250X-0.218750X-0.247250X0.218750X-0.247250X0*%
%ADD43RoundRect,0.113750X0.247250X-0.218750X0.247250X0.218750X-0.247250X0.218750X-0.247250X-0.218750X0*%
%ADD44R,0.456000X0.608000*%
%ADD45RoundRect,0.112000X-0.325000X-0.914000X0.325000X-0.914000X0.325000X0.914000X-0.325000X0.914000X0*%
%ADD46RoundRect,0.000000X-0.459800X-0.224200X0.459800X-0.224200X0.459800X0.224200X-0.459800X0.224200X0*%
%ADD47R,1.293368X2.992120*%
%ADD48R,1.596000X1.064000*%
%ADD49RoundRect,0.113750X-0.247250X0.218750X-0.247250X-0.218750X0.247250X-0.218750X0.247250X0.218750X0*%
%ADD50R,0.181855X0.691325*%
%ADD51RoundRect,0.010486X0.080441X-0.335176X0.080441X0.335176X-0.080441X0.335176X-0.080441X-0.335176X0*%
%ADD52RoundRect,0.090928X0.254734X0.000001X0.254734X-0.000001X-0.254734X-0.000001X-0.254734X0.000001X0*%
%ADD53R,0.853480X0.853480*%
%ADD54R,0.836000X0.684000*%
%ADD55R,0.965200X1.679448*%
%ADD56RoundRect,0.000000X0.425600X0.102600X-0.425600X0.102600X-0.425600X-0.102600X0.425600X-0.102600X0*%
%ADD57RoundRect,0.000000X-0.608000X1.330000X-0.608000X-1.330000X0.608000X-1.330000X0.608000X1.330000X0*%
%ADD58RoundRect,0.115000X-0.312500X-0.550000X0.312500X-0.550000X0.312500X0.550000X-0.312500X0.550000X0*%
%ADD59R,0.684000X0.193040*%
%ADD60R,0.193040X0.684000*%
%ADD61RoundRect,0.000000X0.503500X0.228000X-0.503500X0.228000X-0.503500X-0.228000X0.503500X-0.228000X0*%
%ADD62RoundRect,0.112000X0.325000X0.572000X-0.325000X0.572000X-0.325000X-0.572000X0.325000X-0.572000X0*%
%ADD63R,1.094400X1.588400*%
%ADD64R,0.638400X0.326800*%
%ADD65R,0.638400X0.250800*%
%ADD66RoundRect,0.000000X0.319200X0.098800X-0.319200X0.098800X-0.319200X-0.098800X0.319200X-0.098800X0*%
%ADD67RoundRect,0.000000X-0.098800X0.319200X-0.098800X-0.319200X0.098800X-0.319200X0.098800X0.319200X0*%
G04 APERTURE END LIST*
%TO.C,U4*%
G36*
X114522788Y-77344400D02*
G01*
X113272850Y-77344400D01*
X113272850Y-76094462D01*
X114522788Y-76094462D01*
X114522788Y-77344400D01*
G37*
D10*
X114522788Y-77344400D02*
X113272850Y-77344400D01*
X113272850Y-76094462D01*
X114522788Y-76094462D01*
X114522788Y-77344400D01*
G36*
X116275370Y-75594400D02*
G01*
X115022850Y-75594400D01*
X115022850Y-74341880D01*
X116275370Y-74341880D01*
X116275370Y-75594400D01*
G37*
X116275370Y-75594400D02*
X115022850Y-75594400D01*
X115022850Y-74341880D01*
X116275370Y-74341880D01*
X116275370Y-75594400D01*
G36*
X116275330Y-77344400D02*
G01*
X115022850Y-77344400D01*
X115022850Y-76094813D01*
X116275330Y-76094813D01*
X116275330Y-77344400D01*
G37*
X116275330Y-77344400D02*
X115022850Y-77344400D01*
X115022850Y-76094813D01*
X116275330Y-76094813D01*
X116275330Y-77344400D01*
G36*
X114522394Y-75594400D02*
G01*
X113272850Y-75594400D01*
X113272850Y-74341670D01*
X114522394Y-74341670D01*
X114522394Y-75594400D01*
G37*
X114522394Y-75594400D02*
X113272850Y-75594400D01*
X113272850Y-74341670D01*
X114522394Y-74341670D01*
X114522394Y-75594400D01*
%TO.C,U6*%
G36*
X65820500Y-55836400D02*
G01*
X64180500Y-55836400D01*
X64180500Y-54196400D01*
X65820500Y-54196400D01*
X65820500Y-55836400D01*
G37*
X65820500Y-55836400D02*
X64180500Y-55836400D01*
X64180500Y-54196400D01*
X65820500Y-54196400D01*
X65820500Y-55836400D01*
%TD*%
D11*
%TO.C,R11*%
X65100200Y-26606000D03*
X65100200Y-24956000D03*
%TD*%
D12*
%TO.C,R36*%
X74688200Y-82016600D03*
X73038200Y-82016600D03*
%TD*%
D13*
%TO.C,D9*%
X81838800Y-55621916D03*
X81838800Y-58921916D03*
%TD*%
D11*
%TO.C,R72*%
X124256800Y-84899000D03*
X124256800Y-83249000D03*
%TD*%
D14*
%TO.C,C19*%
X109880400Y-85867200D03*
X109880400Y-87767200D03*
%TD*%
D15*
%TO.C,C10*%
X94275000Y-49580800D03*
X92725000Y-49580800D03*
%TD*%
D16*
%TO.C,R69*%
X98082600Y-53187600D03*
X99732600Y-53187600D03*
%TD*%
D15*
%TO.C,C21*%
X66383200Y-41579800D03*
X64833200Y-41579800D03*
%TD*%
D17*
%TO.C,C29*%
X79806800Y-57157916D03*
X79806800Y-55607916D03*
%TD*%
D18*
%TO.C,Q8*%
X98983800Y-40281950D03*
X100883800Y-40281950D03*
X99933800Y-38406950D03*
%TD*%
D17*
%TO.C,C13*%
X117932200Y-71234800D03*
X117932200Y-69684800D03*
%TD*%
D19*
%TO.C,C31*%
X66344800Y-62979000D03*
X66344800Y-64529000D03*
%TD*%
D11*
%TO.C,R78*%
X103962200Y-91553800D03*
X103962200Y-89903800D03*
%TD*%
D20*
%TO.C,C25*%
X68529200Y-48056800D03*
X71479200Y-48056800D03*
%TD*%
D21*
%TO.C,U5*%
X114338100Y-89677199D03*
X114338100Y-90627200D03*
X114338100Y-91577201D03*
X117043200Y-91577201D03*
X117043200Y-90627200D03*
X117043200Y-89677199D03*
%TD*%
D13*
%TO.C,D13*%
X120827800Y-41451800D03*
X120827800Y-38151800D03*
%TD*%
D17*
%TO.C,C16*%
X122552200Y-71261600D03*
X122552200Y-69711600D03*
%TD*%
%TO.C,C17*%
X113258600Y-69710600D03*
X113258600Y-68160600D03*
%TD*%
D22*
%TO.C,D11*%
X69443600Y-89520400D03*
X69443600Y-84520400D03*
%TD*%
D11*
%TO.C,R50*%
X97409000Y-40090950D03*
X97409000Y-38440950D03*
%TD*%
D18*
%TO.C,Q5*%
X116880600Y-40282100D03*
X118780600Y-40282100D03*
X117830600Y-38407100D03*
%TD*%
D23*
%TO.C,D6*%
X107508400Y-94005400D03*
X103108400Y-94005400D03*
%TD*%
D15*
%TO.C,C51*%
X95136000Y-71704200D03*
X93586000Y-71704200D03*
%TD*%
D19*
%TO.C,C39*%
X83566000Y-82283000D03*
X83566000Y-83833000D03*
%TD*%
D17*
%TO.C,C14*%
X119456200Y-71234800D03*
X119456200Y-69684800D03*
%TD*%
D12*
%TO.C,R70*%
X100393000Y-61883300D03*
X98743000Y-61883300D03*
%TD*%
D17*
%TO.C,C8*%
X93675200Y-43243800D03*
X93675200Y-41693800D03*
%TD*%
D24*
%TO.C,C47*%
X98767600Y-60325000D03*
X100317600Y-60325000D03*
%TD*%
D12*
%TO.C,R24*%
X117055400Y-93268800D03*
X115405400Y-93268800D03*
%TD*%
%TO.C,R79*%
X104365600Y-42087650D03*
X102715600Y-42087650D03*
%TD*%
D25*
%TO.C,SW1*%
X98721600Y-67959800D03*
X98721600Y-63459800D03*
X100871600Y-67959800D03*
X100871600Y-63459800D03*
%TD*%
D11*
%TO.C,R49*%
X113969800Y-43725600D03*
X113969800Y-42075600D03*
%TD*%
D26*
%TO.C,R45*%
X115544600Y-42063400D03*
X115544600Y-43713400D03*
%TD*%
D17*
%TO.C,C46*%
X120472600Y-45727200D03*
X120472600Y-44177200D03*
%TD*%
D12*
%TO.C,R26*%
X95211400Y-62738000D03*
X93561400Y-62738000D03*
%TD*%
D11*
%TO.C,R10*%
X83261200Y-26733000D03*
X83261200Y-25083000D03*
%TD*%
D26*
%TO.C,R27*%
X63246000Y-49517800D03*
X63246000Y-51167800D03*
%TD*%
D12*
%TO.C,R22*%
X114896400Y-71221600D03*
X113246400Y-71221600D03*
%TD*%
D27*
%TO.C,D10*%
X73329800Y-59684916D03*
X77329800Y-59684916D03*
%TD*%
D28*
%TO.C,D4*%
X119950000Y-76925417D03*
D29*
X120900001Y-76925417D03*
X121850001Y-76925417D03*
X121850001Y-74774582D03*
X120900001Y-74774582D03*
X119950000Y-74774582D03*
%TD*%
D18*
%TO.C,Q7*%
X113375400Y-40282100D03*
X115275400Y-40282100D03*
X114325400Y-38407100D03*
%TD*%
D26*
%TO.C,R14*%
X99415600Y-74346800D03*
X99415600Y-75996800D03*
%TD*%
%TO.C,R33*%
X63296800Y-62929000D03*
X63296800Y-64579000D03*
%TD*%
D12*
%TO.C,R38*%
X70421000Y-81229200D03*
X68771000Y-81229200D03*
%TD*%
D30*
%TO.C,Q3*%
X103316999Y-88234800D03*
X105217001Y-88234800D03*
X104267000Y-85847200D03*
%TD*%
D19*
%TO.C,C36*%
X65227200Y-88125000D03*
X65227200Y-89675000D03*
%TD*%
D26*
%TO.C,R37*%
X66802000Y-88075000D03*
X66802000Y-89725000D03*
%TD*%
D31*
%TO.C,R1*%
X65338100Y-94310200D03*
X71263100Y-94310200D03*
%TD*%
D17*
%TO.C,C45*%
X122047400Y-45727200D03*
X122047400Y-44177200D03*
%TD*%
D32*
%TO.C,H3*%
X61569600Y-24739600D03*
%TD*%
D16*
%TO.C,R61*%
X82563200Y-46532800D03*
X84213200Y-46532800D03*
%TD*%
D15*
%TO.C,C6*%
X82715400Y-49987200D03*
X81165400Y-49987200D03*
%TD*%
D24*
%TO.C,C50*%
X90487200Y-71704200D03*
X92037200Y-71704200D03*
%TD*%
D17*
%TO.C,C30*%
X70789800Y-61227000D03*
X70789800Y-59677000D03*
%TD*%
D33*
%TO.C,J2*%
X128137000Y-78790400D03*
X128137000Y-72390400D03*
X128137000Y-77990401D03*
D34*
X128137000Y-76840400D03*
X128137000Y-75840400D03*
X128137000Y-75340400D03*
X128137000Y-74340400D03*
D33*
X128137000Y-73190399D03*
D34*
X128137000Y-73840401D03*
X128137000Y-74840399D03*
X128137000Y-76340401D03*
X128137000Y-77340399D03*
%TD*%
D32*
%TO.C,H1*%
X132283200Y-95453200D03*
%TD*%
D35*
%TO.C,U3*%
X126722800Y-48548400D03*
X125452800Y-48548400D03*
X124182800Y-48548400D03*
X122912800Y-48548400D03*
X121642800Y-48548400D03*
X120372800Y-48548400D03*
X119102800Y-48548400D03*
X117832800Y-48548400D03*
X116562800Y-48548400D03*
X115292800Y-48548400D03*
X114022800Y-48548400D03*
X112752800Y-48548400D03*
X111482800Y-48548400D03*
X110212800Y-48548400D03*
D36*
X109212800Y-51333400D03*
X109212800Y-52603400D03*
X109212800Y-53873400D03*
X109212800Y-55143400D03*
X109212800Y-56413400D03*
X109212800Y-57683400D03*
X109212800Y-58953400D03*
X109212800Y-60223400D03*
X109212800Y-61493400D03*
X109212800Y-62763400D03*
D35*
X110212800Y-65548400D03*
X111482800Y-65548400D03*
X112752800Y-65548400D03*
X114022800Y-65548400D03*
X115292800Y-65548400D03*
X116562800Y-65548400D03*
X117832800Y-65548400D03*
X119102800Y-65548400D03*
X120372800Y-65548400D03*
X121642800Y-65548400D03*
X122912800Y-65548400D03*
X124182800Y-65548400D03*
X125452800Y-65548400D03*
X126722800Y-65548400D03*
D37*
X121057800Y-57883400D03*
X117387800Y-56048400D03*
X119222800Y-57883400D03*
X121057800Y-54213400D03*
X119222800Y-54213400D03*
X119222800Y-56048400D03*
X117387800Y-57883400D03*
X121057800Y-56048400D03*
X117387800Y-54213400D03*
%TD*%
D38*
%TO.C,C33*%
X85775800Y-69893916D03*
X85775800Y-72843916D03*
%TD*%
D17*
%TO.C,C41*%
X122809000Y-41440400D03*
X122809000Y-39890400D03*
%TD*%
D26*
%TO.C,R32*%
X79806800Y-58986916D03*
X79806800Y-60636916D03*
%TD*%
D14*
%TO.C,C18*%
X111963200Y-85867200D03*
X111963200Y-87767200D03*
%TD*%
D39*
%TO.C,L6*%
X82042000Y-90845200D03*
X82042000Y-86345200D03*
%TD*%
D40*
%TO.C,D8*%
X90449300Y-62738000D03*
X92024300Y-62738000D03*
%TD*%
D26*
%TO.C,R15*%
X101193600Y-74346800D03*
X101193600Y-75996800D03*
%TD*%
D40*
%TO.C,D7*%
X90449300Y-60909200D03*
X92024300Y-60909200D03*
%TD*%
D19*
%TO.C,C2*%
X83870800Y-41033400D03*
X83870800Y-42583400D03*
%TD*%
D12*
%TO.C,R23*%
X120459000Y-91567000D03*
X118809000Y-91567000D03*
%TD*%
D11*
%TO.C,R41*%
X63105800Y-83121000D03*
X63105800Y-81471000D03*
%TD*%
D41*
%TO.C,C53*%
X111963200Y-91577200D03*
X111963200Y-89677200D03*
%TD*%
D42*
%TO.C,L2*%
X122437500Y-72870000D03*
X120862500Y-72870000D03*
%TD*%
D16*
%TO.C,R77*%
X99378000Y-92532200D03*
X101028000Y-92532200D03*
%TD*%
D19*
%TO.C,C34*%
X66802000Y-85026200D03*
X66802000Y-86576200D03*
%TD*%
D43*
%TO.C,D3*%
X101193600Y-79096700D03*
X101193600Y-77521700D03*
%TD*%
D26*
%TO.C,R43*%
X122097800Y-87440000D03*
X122097800Y-89090000D03*
%TD*%
D11*
%TO.C,R42*%
X86309200Y-89369400D03*
X86309200Y-87719400D03*
%TD*%
D19*
%TO.C,C27*%
X68427600Y-50025000D03*
X68427600Y-51575000D03*
%TD*%
D32*
%TO.C,H2*%
X132283200Y-24739600D03*
%TD*%
D44*
%TO.C,Q1*%
X108283800Y-72841200D03*
X110183800Y-72841200D03*
X109233800Y-70821200D03*
%TD*%
D12*
%TO.C,R40*%
X63118000Y-79756000D03*
X61468000Y-79756000D03*
%TD*%
D38*
%TO.C,C1*%
X63500000Y-32561000D03*
X63500000Y-35511000D03*
%TD*%
D11*
%TO.C,R18*%
X106693800Y-72847200D03*
X106693800Y-71197200D03*
%TD*%
D14*
%TO.C,C3*%
X79324200Y-49748400D03*
X79324200Y-51648400D03*
%TD*%
%TO.C,C5*%
X84480400Y-48478400D03*
X84480400Y-50378400D03*
%TD*%
D45*
%TO.C,C23*%
X68451200Y-42595800D03*
X71401200Y-42595800D03*
%TD*%
D24*
%TO.C,C55*%
X118706600Y-89255600D03*
X120256600Y-89255600D03*
%TD*%
D11*
%TO.C,R19*%
X106680000Y-77050400D03*
X106680000Y-75400400D03*
%TD*%
D38*
%TO.C,C32*%
X68884800Y-69899000D03*
X68884800Y-72849000D03*
%TD*%
D17*
%TO.C,C15*%
X121031000Y-71247800D03*
X121031000Y-69697800D03*
%TD*%
D46*
%TO.C,U1*%
X75582500Y-44750000D03*
X75582500Y-45700000D03*
X75582500Y-46650000D03*
X78092500Y-46650000D03*
X78092500Y-44750000D03*
%TD*%
D12*
%TO.C,R74*%
X93687400Y-68935600D03*
X92037400Y-68935600D03*
%TD*%
D15*
%TO.C,C7*%
X82715400Y-48463200D03*
X81165400Y-48463200D03*
%TD*%
D11*
%TO.C,R65*%
X92087200Y-43293800D03*
X92087200Y-41643800D03*
%TD*%
D16*
%TO.C,R66*%
X96609400Y-44856400D03*
X98259400Y-44856400D03*
%TD*%
D26*
%TO.C,R71*%
X124256800Y-86309200D03*
X124256800Y-87959200D03*
%TD*%
D12*
%TO.C,R16*%
X126478800Y-77343000D03*
X124828800Y-77343000D03*
%TD*%
D26*
%TO.C,R13*%
X102920800Y-74385400D03*
X102920800Y-76035400D03*
%TD*%
D17*
%TO.C,C44*%
X123621800Y-45745400D03*
X123621800Y-44195400D03*
%TD*%
D30*
%TO.C,Q4*%
X105602999Y-91567000D03*
X107503001Y-91567000D03*
X106553000Y-89179400D03*
%TD*%
D43*
%TO.C,D2*%
X99415600Y-79058100D03*
X99415600Y-77483100D03*
%TD*%
D47*
%TO.C,L3*%
X118160800Y-85598000D03*
X114147600Y-85598000D03*
%TD*%
D24*
%TO.C,C48*%
X102628400Y-61925200D03*
X104178400Y-61925200D03*
%TD*%
D48*
%TO.C,D5*%
X100203000Y-86319000D03*
X100203000Y-90719000D03*
%TD*%
D11*
%TO.C,R47*%
X112420400Y-43725600D03*
X112420400Y-42075600D03*
%TD*%
D49*
%TO.C,L5*%
X64846200Y-43078300D03*
X64846200Y-44653300D03*
%TD*%
D24*
%TO.C,C35*%
X68833200Y-79705200D03*
X70383200Y-79705200D03*
%TD*%
D50*
%TO.C,U2*%
X86329200Y-46529046D03*
D51*
X86829200Y-46529046D03*
X87329200Y-46529046D03*
X87829201Y-46529046D03*
X88329201Y-46529046D03*
X88829201Y-46529046D03*
D52*
X89480447Y-45877800D03*
X89480447Y-45377800D03*
X89480447Y-44877800D03*
X89480447Y-44377799D03*
X89480447Y-43877799D03*
X89480447Y-43377799D03*
D51*
X88829201Y-42726553D03*
X88329201Y-42726553D03*
X87829201Y-42726553D03*
X87329200Y-42726553D03*
X86829200Y-42726553D03*
X86329200Y-42726553D03*
D52*
X85677954Y-43377799D03*
X85677954Y-43877799D03*
X85677954Y-44377799D03*
X85677954Y-44877800D03*
X85677954Y-45377800D03*
X85677954Y-45877800D03*
D53*
X88265000Y-43942000D03*
X88265000Y-45313600D03*
X86890700Y-45316300D03*
X86890700Y-43939300D03*
%TD*%
D11*
%TO.C,R34*%
X64820800Y-64579000D03*
X64820800Y-62929000D03*
%TD*%
D12*
%TO.C,R73*%
X104253800Y-60350400D03*
X102603800Y-60350400D03*
%TD*%
%TO.C,R28*%
X71538600Y-53086000D03*
X69888600Y-53086000D03*
%TD*%
D24*
%TO.C,C9*%
X92725000Y-48056800D03*
X94275000Y-48056800D03*
%TD*%
D11*
%TO.C,R31*%
X69138800Y-61327800D03*
X69138800Y-59677800D03*
%TD*%
D44*
%TO.C,Q2*%
X108276900Y-77057600D03*
X110176900Y-77057600D03*
X109226900Y-75037600D03*
%TD*%
D15*
%TO.C,C49*%
X128740200Y-91694000D03*
X127190200Y-91694000D03*
%TD*%
D54*
%TO.C,Y1*%
X88500000Y-51650000D03*
X90200000Y-51650000D03*
X90200000Y-50350000D03*
X88500000Y-50350000D03*
%TD*%
D55*
%TO.C,TR1*%
X72393800Y-63500000D03*
X74893800Y-63500000D03*
X77393800Y-63500000D03*
X79893800Y-63500000D03*
X82393800Y-63500000D03*
X82393800Y-79756000D03*
X79893800Y-79756000D03*
X77393800Y-79756000D03*
X74893800Y-79756000D03*
X72393800Y-79756000D03*
%TD*%
D56*
%TO.C,U9*%
X94278900Y-67552000D03*
X94278900Y-67052000D03*
X94278900Y-66552000D03*
X94278900Y-66052000D03*
X91468900Y-66052000D03*
X91468900Y-66552000D03*
X91468900Y-67052000D03*
X91468900Y-67552000D03*
%TD*%
D16*
%TO.C,R48*%
X97346000Y-42110750D03*
X98996000Y-42110750D03*
%TD*%
D25*
%TO.C,SW2*%
X102631950Y-67963100D03*
X102631950Y-63463100D03*
X104781950Y-67963100D03*
X104781950Y-63463100D03*
%TD*%
D15*
%TO.C,C43*%
X96431400Y-53187600D03*
X94881400Y-53187600D03*
%TD*%
D26*
%TO.C,R20*%
X116357400Y-69647800D03*
X116357400Y-71297800D03*
%TD*%
D41*
%TO.C,C54*%
X109826200Y-91577200D03*
X109826200Y-89677200D03*
%TD*%
D57*
%TO.C,C37*%
X74980800Y-85896800D03*
X74980800Y-91496800D03*
%TD*%
D26*
%TO.C,R46*%
X101203800Y-42024650D03*
X101203800Y-43674650D03*
%TD*%
D40*
%TO.C,L1*%
X81152900Y-51638200D03*
X82727900Y-51638200D03*
%TD*%
D12*
%TO.C,R80*%
X118718600Y-42138600D03*
X117068600Y-42138600D03*
%TD*%
D58*
%TO.C,R30*%
X70063900Y-56743600D03*
X72988900Y-56743600D03*
%TD*%
D59*
%TO.C,U4*%
X117211250Y-77344400D03*
X117211250Y-76844400D03*
X117211250Y-76344400D03*
X117211250Y-75844400D03*
X117211250Y-75344400D03*
X117211250Y-74844400D03*
X117211250Y-74344400D03*
D60*
X116271450Y-73380600D03*
X115771450Y-73380600D03*
X115271450Y-73380600D03*
X114771450Y-73380600D03*
X114271450Y-73380600D03*
X113771450Y-73380600D03*
X113271450Y-73380600D03*
D59*
X112309050Y-74344400D03*
X112309050Y-74844400D03*
X112309050Y-75344400D03*
X112309050Y-75844400D03*
X112309050Y-76344400D03*
X112309050Y-76844400D03*
X112309050Y-77344400D03*
D60*
X113272850Y-78308200D03*
X113772850Y-78308200D03*
X114272850Y-78308200D03*
X114772850Y-78308200D03*
X115272850Y-78308200D03*
X115772850Y-78308200D03*
X116272850Y-78308200D03*
%TD*%
D49*
%TO.C,L4*%
X66370200Y-43078300D03*
X66370200Y-44653300D03*
%TD*%
D61*
%TO.C,U8*%
X67138900Y-81620400D03*
X67138900Y-80670400D03*
X67138900Y-79720400D03*
X64863900Y-79720400D03*
X64863900Y-81620400D03*
%TD*%
D20*
%TO.C,C24*%
X68451200Y-45516800D03*
X71401200Y-45516800D03*
%TD*%
D16*
%TO.C,R67*%
X108547400Y-67716400D03*
X110197400Y-67716400D03*
%TD*%
D26*
%TO.C,R44*%
X122123200Y-90538800D03*
X122123200Y-92188800D03*
%TD*%
D19*
%TO.C,C20*%
X109804200Y-93332000D03*
X109804200Y-94882000D03*
%TD*%
D12*
%TO.C,R68*%
X103898200Y-53187600D03*
X102248200Y-53187600D03*
%TD*%
D15*
%TO.C,C22*%
X66396200Y-46151800D03*
X64846200Y-46151800D03*
%TD*%
D62*
%TO.C,C52*%
X132490000Y-68986400D03*
X129540000Y-68986400D03*
%TD*%
D26*
%TO.C,R21*%
X114833400Y-68110600D03*
X114833400Y-69760600D03*
%TD*%
D19*
%TO.C,C28*%
X70002400Y-50025000D03*
X70002400Y-51575000D03*
%TD*%
D63*
%TO.C,U7*%
X63677800Y-76295000D03*
X66217800Y-76295000D03*
X66217800Y-67215000D03*
X63677800Y-67215000D03*
%TD*%
D11*
%TO.C,R64*%
X95199200Y-43293800D03*
X95199200Y-41643800D03*
%TD*%
D26*
%TO.C,R29*%
X64871600Y-49517800D03*
X64871600Y-51167800D03*
%TD*%
D13*
%TO.C,D12*%
X106502200Y-41423950D03*
X106502200Y-38123950D03*
%TD*%
D43*
%TO.C,D1*%
X102920800Y-79096700D03*
X102920800Y-77521700D03*
%TD*%
D18*
%TO.C,Q6*%
X102555000Y-40281950D03*
X104455000Y-40281950D03*
X103505000Y-38406950D03*
%TD*%
D19*
%TO.C,C40*%
X85140800Y-82283000D03*
X85140800Y-83833000D03*
%TD*%
D32*
%TO.C,H4*%
X61620400Y-95402400D03*
%TD*%
D16*
%TO.C,R35*%
X77813400Y-82016600D03*
X79463400Y-82016600D03*
%TD*%
D64*
%TO.C,RN1*%
X94569200Y-46443800D03*
X93289200Y-46443800D03*
D65*
X94569200Y-45893800D03*
X93289200Y-45893800D03*
X94569200Y-45393800D03*
X93289200Y-45393800D03*
D64*
X94569200Y-44843800D03*
X93289200Y-44843800D03*
%TD*%
D15*
%TO.C,C26*%
X71488600Y-54610000D03*
X69938600Y-54610000D03*
%TD*%
%TO.C,C42*%
X104330800Y-43634750D03*
X102780800Y-43634750D03*
%TD*%
D12*
%TO.C,R58*%
X88099400Y-39293800D03*
X86449400Y-39293800D03*
%TD*%
D16*
%TO.C,R39*%
X65188600Y-83261200D03*
X66838600Y-83261200D03*
%TD*%
D12*
%TO.C,R17*%
X125715000Y-73700000D03*
X124065000Y-73700000D03*
%TD*%
D66*
%TO.C,U6*%
X66935500Y-56016400D03*
X66935500Y-55516400D03*
X66935500Y-55016400D03*
X66935500Y-54516400D03*
X66935500Y-54016400D03*
D67*
X66000500Y-53081400D03*
X65500500Y-53081400D03*
X65000500Y-53081400D03*
X64500500Y-53081400D03*
X64000500Y-53081400D03*
D66*
X63065500Y-54016400D03*
X63065500Y-54516400D03*
X63065500Y-55016400D03*
X63065500Y-55516400D03*
X63065500Y-56016400D03*
D67*
X64000500Y-56951400D03*
X64500500Y-56951400D03*
X65000500Y-56951400D03*
X65500500Y-56951400D03*
X66000500Y-56951400D03*
%TD*%
D15*
%TO.C,C4*%
X88100200Y-37744400D03*
X86550200Y-37744400D03*
%TD*%
D19*
%TO.C,C11*%
X86817200Y-50355200D03*
X86817200Y-51905200D03*
%TD*%
D12*
%TO.C,R25*%
X95211400Y-60909200D03*
X93561400Y-60909200D03*
%TD*%
M02*
